<?xml version="1.0" standalone="no"?>
<!DOCTYPE svg PUBLIC "-//W3C//DTD SVG 20010904//EN"
 "http://www.w3.org/TR/2001/REC-SVG-20010904/DTD/svg10.dtd">
<svg version="1.0" xmlns="http://www.w3.org/2000/svg"
 width="623.000000pt" height="623.000000pt" viewBox="0 0 623.000000 623.000000"
 preserveAspectRatio="xMidYMid meet">
<metadata>
Created by potrace 1.14, written by Peter Selinger 2001-2017
</metadata>
<g transform="translate(0.000000,623.000000) scale(0.100000,-0.100000)"
fill="#000000" stroke="none">
<path d="M4060 6215 c0 -13 -162 -15 -1397 -15 -1532 0 -1476 2 -1591 -60
-101 -53 -185 -151 -225 -258 -17 -48 -22 -86 -25 -234 l-4 -178 -37 0 c-60 0
-76 -19 -76 -88 0 -75 13 -92 71 -92 l44 0 0 -475 0 -475 -42 0 c-65 0 -73 -9
-73 -85 0 -76 8 -85 73 -85 l42 0 0 -498 0 -498 -42 -10 -43 -9 -3 -68 c-3
-80 6 -97 54 -97 l34 0 0 -520 0 -520 -26 0 c-54 0 -64 -15 -64 -90 0 -75 10
-90 64 -90 l26 0 0 -480 0 -480 -50 0 c-45 0 -52 -3 -60 -26 -15 -38 -12 -97
6 -122 12 -17 25 -22 60 -22 l44 0 0 -84 c0 -46 5 -107 10 -137 32 -167 159
-309 323 -361 60 -19 99 -20 1480 -25 1183 -5 1417 -8 1417 -19 0 -11 47 -14
255 -14 220 0 255 2 255 15 0 13 35 15 253 15 138 0 281 5 317 11 190 31 354
190 390 378 7 36 10 944 10 2705 0 2921 5 2703 -61 2827 -62 115 -197 214
-328 239 -30 5 -175 10 -322 10 -232 0 -269 2 -269 15 0 13 -34 15 -245 15
-211 0 -245 -2 -245 -15z m975 -56 c184 -33 335 -181 374 -367 8 -38 11 -802
11 -2685 0 -2302 -2 -2640 -15 -2690 -42 -163 -160 -289 -318 -339 -49 -16
-100 -21 -237 -25 l-175 -5 71 36 c83 42 168 126 208 204 60 118 56 -77 56
2824 0 1896 -3 2672 -11 2710 -27 131 -127 264 -242 322 -31 15 -57 29 -57 30
0 6 289 -7 335 -15z"/>
</g>
</svg>
